<?xml version="1.0" encoding="utf-8"?>
<!-- Generator: Adobe Illustrator 28.0.0, SVG Export Plug-In . SVG Version: 6.00 Build 0)  -->
<svg version="1.1" id="LOGOS" xmlns="http://www.w3.org/2000/svg" xmlns:xlink="http://www.w3.org/1999/xlink" x="0px" y="0px"
	 viewBox="0 0 2080 2080" style="enable-background:new 0 0 2080 2080;" xml:space="preserve">
<style type="text/css">
	.st0{fill:#00599D;}
	.st1{fill:#FFFFFF;}
	.st2{fill:#999999;stroke:#669B94;stroke-width:8.2696;stroke-linecap:round;stroke-linejoin:round;stroke-miterlimit:10;}
</style>
<g>
	<g>
		<path class="st0" d="M220.1,752.7v705.1H132V752.7h94 M308.2,664.6H43.8V1546h264.4V664.6z"/>
		<path class="st0" d="M572.7,798.5v705.1h-88.1V798.5h94 M660.8,710.3H396.4v881.4h264.4V710.3z"/>
		<path class="st0" d="M396.4,576.4v705.1h-88.1V576.4h94 M484.5,488.3H220.1v881.4h264.4V488.3z"/>
		<path class="st0" d="M748.9,620.5v705.1h-88.1V620.5h94 M837.1,532.4H572.7v881.4h264.4V532.4z"/>
	</g>
	<g>
		<g>
			<path class="st1" d="M1097.5,762.3c25.4,0,47.2,9.2,65.5,27.6c18.3,18.4,27.4,40.8,27.4,67.2c0,26.2-9,48.4-27,66.5
				c-18,18.1-39.9,27.2-65.6,27.2c-26.9,0-49.3-9.3-67.2-27.9c-17.8-18.6-26.7-40.8-26.7-66.4c0-17.2,4.2-32.9,12.5-47.3
				c8.3-14.4,19.7-25.8,34.2-34.2C1065.1,766.5,1080.7,762.3,1097.5,762.3z M1097.1,795.7c-16.6,0-30.6,5.8-41.9,17.3
				c-11.3,11.6-17,26.2-17,44c0,19.8,7.1,35.6,21.4,47.1c11.1,9,23.8,13.5,38.1,13.5c16.2,0,30-5.9,41.4-17.6
				c11.4-11.7,17.1-26.2,17.1-43.3c0-17.1-5.7-31.5-17.2-43.4C1127.5,801.6,1113.6,795.7,1097.1,795.7z"/>
			<path class="st1" d="M1229.2,766.8h32.8l76.8,118.1V766.8h34.2v179.5h-32.9l-76.7-117.8v117.8h-34.2V766.8z"/>
			<path class="st1" d="M1421.5,864.6h62v31h-62V864.6z"/>
			<path class="st1" d="M1531.9,766.8h34.2v146.9h49.8v32.6h-84V766.8z"/>
			<path class="st1" d="M1645.9,766.8h33.9v179.5h-33.9V766.8z"/>
			<path class="st1" d="M1724.9,766.8h32.8l76.8,118.1V766.8h34.2v179.5h-32.9l-76.7-117.8v117.8h-34.2V766.8z"/>
			<path class="st1" d="M1916.2,766.8h98v33.4h-64.1v32.5h64.1v32.8h-64.1v47.2h64.1v33.6h-98V766.8z"/>
			<path class="st1" d="M1013.6,1081.8h35.6v152.9h51.8v33.9h-87.4V1081.8z"/>
			<path class="st1" d="M1132.2,1081.8h35.3v186.8h-35.3V1081.8z"/>
			<path class="st1" d="M1214.3,1268.6v-186.8h29.4c17,0,29.5,1.1,37.4,3.3c11.2,3,20.1,8.5,26.7,16.5c6.6,8,9.9,17.5,9.9,28.4
				c0,7.1-1.5,13.6-4.5,19.4c-3,5.8-7.9,11.2-14.7,16.3c11.3,5.3,19.6,12,24.9,20c5.2,8,7.9,17.5,7.9,28.4c0,10.5-2.7,20.1-8.1,28.7
				c-5.4,8.6-12.4,15.1-21,19.4c-8.6,4.3-20.4,6.4-35.5,6.4H1214.3z M1249.9,1115.7v39.4h7.8c8.7,0,15.1-1.8,19.3-5.5
				c4.2-3.6,6.3-8.6,6.3-14.9c0-5.8-2-10.5-6-13.9c-4-3.4-10.1-5.1-18.2-5.1H1249.9z M1249.9,1186.8v47.9h8.9
				c14.8,0,24.7-1.9,29.9-5.6c5.1-3.7,7.7-9.1,7.7-16.3c0-8-3-14.4-9-19.1c-6-4.7-16-7-30.1-7H1249.9z"/>
			<path class="st1" d="M1374.4,1081.8h37.7c20.6,0,35.3,1.8,44.1,5.5c8.8,3.7,15.8,9.8,21.1,18.4c5.3,8.6,8,18.7,8,30.4
				c0,12.3-2.9,22.5-8.8,30.8s-14.8,14.5-26.6,18.7l44.3,83.1h-38.9l-42-79.1h-3.3v79.1h-35.6V1081.8z M1409.9,1154.8h11.1
				c11.3,0,19.1-1.5,23.4-4.5s6.4-7.9,6.4-14.8c0-4.1-1.1-7.6-3.2-10.6c-2.1-3-4.9-5.2-8.5-6.5c-3.5-1.3-10-2-19.5-2h-9.8V1154.8z"
				/>
			<path class="st1" d="M1586.6,1081.8h36.1l71.9,186.8h-37l-14.6-38.5h-76.2l-15.2,38.5h-37L1586.6,1081.8z M1604.8,1131.3
				l-25.1,64.1h50L1604.8,1131.3z"/>
			<path class="st1" d="M1731.2,1081.8h37.7c20.6,0,35.3,1.8,44.1,5.5c8.8,3.7,15.8,9.8,21.1,18.4c5.3,8.6,8,18.7,8,30.4
				c0,12.3-2.9,22.5-8.8,30.8s-14.8,14.5-26.6,18.7l44.3,83.1H1812l-42-79.1h-3.3v79.1h-35.6V1081.8z M1766.7,1154.8h11.1
				c11.3,0,19.1-1.5,23.4-4.5s6.4-7.9,6.4-14.8c0-4.1-1.1-7.6-3.2-10.6c-2.1-3-4.9-5.2-8.5-6.5c-3.5-1.3-10-2-19.5-2h-9.8V1154.8z"
				/>
			<path class="st1" d="M1873.1,1081.8h38.2l34.9,67.2l34.7-67.2h37.7l-54.7,105.9v80.9h-35.8v-80.9L1873.1,1081.8z"/>
		</g>
		<line class="st2" x1="992.2" y1="1014.5" x2="2036.2" y2="1014.5"/>
	</g>
</g>
</svg>
